<?xml version="1.0" encoding="UTF-8"?>
<!DOCTYPE svg PUBLIC "-//W3C//DTD SVG 1.1//EN" "http://www.w3.org/Graphics/SVG/1.1/DTD/svg11.dtd">
<svg xmlns="http://www.w3.org/2000/svg" xmlns:xlink="http://www.w3.org/1999/xlink" version="1.1" width="24" height="24" viewBox="0 0 24 24">
<rect x="0" y="0" width="24" height="24" fill="blue" />
<path d="M11,9 l3,3 l-4.5,3.5 l3,3 l-9,0 l0,-9 l3,3 Z" fill="red" />
<path d="M17,7H19A2,2 0 0,1 21,9V17H19V13H17V17H15V9A2,2 0 0,1 17,7M17,9V11H19V9H17Z" fill="red" />
<path d="M0,0 h24 v2 h-24 z M24,0 v24 h-2 v-24 z M24,24 h-24 v-2 h24 z M0,24 v-24 h2 v24 z" fill="green"/>
</svg>
